<svg version="1.1" id="Layer_1" xmlns="http://www.w3.org/2000/svg" xmlns:xlink="http://www.w3.org/1999/xlink" x="0px" y="0px"
	 width="100%" viewBox="0 0 968 240" enable-background="new 0 0 968 240" xml:space="preserve">
<path fill="#121212" opacity="1.000000" stroke="none" 
	d="
M647.000000,241.000000 
	C431.333344,241.000000 216.166672,241.000000 1.000000,241.000000 
	C1.000000,161.000000 1.000000,81.000000 1.000000,1.000000 
	C323.666656,1.000000 646.333313,1.000000 969.000000,1.000000 
	C969.000000,81.000000 969.000000,161.000000 969.000000,241.000000 
	C861.833313,241.000000 754.666687,241.000000 647.000000,241.000000 
M108.336967,174.107239 
	C107.593956,175.430786 107.158661,177.515854 106.060196,177.959732 
	C95.467850,182.239914 92.116295,190.410263 92.944275,201.101593 
	C93.149475,203.751251 92.975548,206.430328 92.974884,209.095871 
	C92.971703,221.835815 92.971581,221.835800 105.598717,221.835800 
	C136.252487,221.835770 166.906265,221.844971 197.560043,221.827682 
	C203.406021,221.824387 204.281464,221.007446 204.285278,215.245377 
	C204.289810,208.420319 204.311737,201.585815 203.976395,194.772644 
	C203.640244,187.942978 200.325531,181.568878 194.115616,179.876877 
	C185.770950,177.603241 185.727585,172.519119 186.229599,166.154800 
	C186.347137,164.664825 186.094131,163.139557 186.270828,161.661499 
	C186.765762,157.521393 185.037292,154.975372 181.463989,152.789307 
	C171.104187,146.451385 164.830765,133.940414 167.575302,119.286957 
	C175.965500,118.356850 184.123154,118.439171 190.904526,124.594307 
	C191.394760,125.039284 191.935028,125.439003 192.490601,125.800491 
	C195.355637,127.664650 197.887909,127.703094 200.439423,124.973114 
	C204.418320,120.715897 208.559174,116.599335 212.796829,112.598396 
	C215.716705,109.841629 215.488373,107.346474 213.176926,104.354050 
	C203.059296,91.255661 192.989731,78.119102 183.046722,64.888199 
	C181.867157,63.318565 181.082840,61.115948 180.958176,59.153210 
	C180.599960,53.513092 180.691513,47.845142 180.571732,42.188862 
	C180.503616,38.973015 178.505203,37.547493 175.648712,38.063557 
	C168.578369,39.340893 162.500198,42.561604 160.253937,49.823612 
	C159.060501,53.681870 157.130585,54.728226 153.455551,55.252163 
	C129.884674,58.612595 109.931870,79.618637 109.025696,103.250267 
	C108.132790,126.535828 108.516220,149.870346 108.336967,174.107239 
M502.034271,55.283623 
	C501.447174,52.575447 500.860107,49.867275 500.351837,47.522724 
	C491.311981,47.522724 482.894897,47.522724 474.532104,47.522724 
	C474.532104,71.779030 474.532104,95.661316 474.532104,119.449173 
	C479.143524,119.449173 483.367310,119.449173 488.163086,119.449173 
	C488.163086,98.407585 488.163086,77.767914 488.163086,57.128239 
	C488.645111,57.062790 489.127136,56.997337 489.609131,56.931889 
	C494.388641,77.809021 499.168152,98.686157 503.965240,119.640152 
	C512.673584,119.640152 521.094910,119.640152 529.657288,119.640152 
	C529.657288,95.407478 529.657288,71.390182 529.657288,47.416683 
	C525.204285,47.416683 521.113586,47.416683 516.236328,47.416683 
	C516.236328,68.427299 516.236328,89.184937 516.236328,109.942581 
	C515.703613,109.999077 515.170898,110.055573 514.638245,110.112076 
	C510.506500,92.106140 506.374786,74.100212 502.034271,55.283623 
M386.382660,119.843796 
	C387.824066,119.762634 389.265442,119.681480 391.008148,119.583351 
	C391.008148,113.794792 391.016418,108.326447 391.006134,102.858124 
	C390.992493,95.612122 392.376923,87.669373 381.359863,85.834831 
	C382.863831,84.493568 383.494965,83.761002 384.275238,83.261299 
	C391.651520,78.537399 394.133636,72.570541 392.557983,63.210258 
	C391.311798,55.807194 385.680542,48.911335 377.958771,48.403614 
	C365.123322,47.559662 352.192017,48.173725 339.253845,48.173725 
	C339.253845,71.657669 339.253845,95.551369 339.253845,119.424911 
	C343.890625,119.424911 348.250214,119.424911 353.031952,119.424911 
	C353.031952,110.248825 353.031952,101.488861 353.031952,92.513603 
	C358.781250,92.513603 364.098755,92.444489 369.413727,92.530838 
	C376.284088,92.642448 377.131256,93.538895 377.156769,100.379646 
	C377.180664,106.793198 377.161865,113.206909 377.161865,119.843864 
	C380.462921,119.843864 382.950378,119.843864 386.382660,119.843796 
M691.471436,175.115677 
	C685.188416,175.115677 678.905396,175.115677 672.531860,175.115677 
	C672.531860,179.342377 672.531860,183.025192 672.531860,187.025482 
	C678.247742,187.025482 683.539429,187.025482 688.812378,187.025482 
	C689.085327,196.137009 685.225525,200.675980 676.692078,201.616241 
	C667.948914,202.579636 660.780090,197.702057 659.982483,189.140472 
	C659.230957,181.072617 659.163574,172.849594 659.779602,164.769867 
	C660.482910,155.544907 666.153931,150.710068 674.646484,150.695251 
	C683.567566,150.679688 688.054138,154.888702 689.445801,164.730057 
	C693.838623,164.730057 698.252930,164.730057 703.899902,164.730057 
	C702.081299,159.337753 701.241943,154.112991 698.717529,149.897278 
	C692.186096,138.989883 674.776367,135.151566 661.704041,140.858505 
	C652.890137,144.706375 647.080505,151.158646 646.349121,160.661270 
	C645.559875,170.915543 645.616211,181.311127 646.301575,191.578461 
	C646.848389,199.770370 651.609253,206.135330 658.683350,210.380768 
	C668.699585,216.391846 680.213196,214.615601 688.156067,206.130188 
	C688.406555,205.862625 689.047241,205.960327 689.817078,205.838562 
	C690.009766,208.007431 690.189819,210.035080 690.369812,212.060867 
	C694.681396,212.060867 698.640076,212.060867 702.617310,212.060867 
	C702.617310,199.756409 702.617310,187.675613 702.617310,175.115723 
	C699.044067,175.115723 695.751770,175.115723 691.471436,175.115677 
M688.994141,57.533478 
	C688.994141,78.267822 688.994141,99.002167 688.994141,119.502335 
	C693.911438,119.502335 697.995239,119.502335 702.609131,119.502335 
	C702.609131,110.428307 702.609131,101.684845 702.609131,92.512306 
	C708.449402,92.512306 713.746582,92.461899 719.042480,92.524818 
	C725.965332,92.607063 727.105896,93.772942 727.154114,100.757370 
	C727.197327,107.017807 727.163208,113.278778 727.163208,119.435989 
	C732.144470,119.435989 736.365112,119.435989 740.841248,119.435989 
	C740.841248,113.210732 740.754517,107.389801 740.863525,101.572540 
	C740.994568,94.583717 741.245422,87.622643 732.148010,86.000214 
	C732.448547,85.121735 732.466614,84.720490 732.676392,84.522224 
	C733.267944,83.963326 733.896729,83.421837 734.583923,82.989571 
	C742.069824,78.280457 743.913879,71.266342 742.450012,63.106644 
	C741.090576,55.529232 736.558411,49.886551 728.992676,49.008865 
	C715.891724,47.489033 702.645813,47.219116 688.994080,46.396828 
	C688.994080,50.619781 688.994080,53.584106 688.994141,57.533478 
M425.561676,185.007919 
	C429.060913,185.007965 432.561676,184.942459 436.059082,185.022858 
	C441.845978,185.155853 443.052155,186.377289 443.094910,192.163239 
	C443.143738,198.779190 443.106232,205.395767 443.106232,212.108444 
	C447.954742,212.108444 452.235718,212.108444 457.006897,212.108444 
	C457.006897,205.662323 456.843231,199.369278 457.050903,193.088501 
	C457.278442,186.206543 456.623993,180.021362 448.374054,178.424210 
	C448.573181,177.614822 448.547760,177.201401 448.737671,177.037338 
	C449.483948,176.392853 450.249207,175.744263 451.094574,175.244736 
	C458.535217,170.847977 459.707153,163.813858 458.703094,156.195114 
	C457.757721,149.021729 453.729370,143.972092 446.634094,141.819397 
	C432.972961,137.674637 419.046417,140.854141 405.334290,139.696426 
	C405.334290,164.345734 405.334290,188.242722 405.334290,212.016144 
	C409.954651,212.016144 414.230347,212.016144 418.902679,212.016144 
	C418.902679,207.304825 418.902679,202.839264 418.902679,198.373703 
	C418.902679,193.964767 418.902679,189.555817 418.902679,185.007812 
	C421.275360,185.007812 422.930695,185.007812 425.561676,185.007919 
M801.041260,149.799973 
	C798.175598,155.279648 798.089661,161.020676 799.963440,166.719788 
	C802.778992,175.283066 810.436768,177.646835 817.924683,180.013214 
	C823.424377,181.751282 829.171875,182.851959 834.441833,185.098221 
	C836.548645,185.996216 839.034058,189.288788 838.911072,191.345764 
	C838.738037,194.240662 837.026917,198.174835 834.702881,199.617416 
	C823.633118,206.488571 811.431580,199.834213 810.559021,186.925430 
	C810.539429,186.635590 810.245422,186.364304 810.038696,186.015701 
	C805.823181,186.015701 801.574524,186.015701 797.145752,186.015701 
	C796.296326,196.238876 799.478760,204.496262 808.384888,209.380829 
	C819.585083,215.523499 831.317505,215.581207 842.575317,209.412064 
	C851.715088,204.403534 855.581543,193.069855 851.392517,183.559250 
	C848.102234,176.088974 840.908325,173.310165 833.652344,171.113831 
	C828.595154,169.583038 823.414185,168.458694 818.366455,166.899979 
	C814.487671,165.702225 812.206665,162.858627 812.310608,158.733276 
	C812.409058,154.826324 814.786377,152.234100 818.419373,151.140106 
	C829.556580,147.786346 836.617859,152.607178 837.509521,163.986984 
	C837.531616,164.268677 837.859863,164.526367 837.994019,164.720840 
	C842.313110,164.720840 846.572998,164.720840 850.809143,164.720840 
	C851.240845,156.869995 849.818726,152.350357 846.768005,147.932068 
	C838.409851,135.827103 809.643738,134.460892 801.041260,149.799973 
M452.603973,115.144745 
	C457.246521,111.509964 460.682495,106.720497 461.026611,100.988655 
	C461.700043,89.772430 461.869019,78.478386 461.354553,67.257469 
	C461.078064,61.226780 457.660278,56.049156 452.649658,52.267933 
	C443.908722,45.671696 434.067261,44.810394 423.774933,46.985405 
	C413.252228,49.209110 405.419098,55.406464 404.175201,66.142799 
	C402.850189,77.578766 403.011627,89.343529 403.995178,100.838867 
	C404.728943,109.414062 410.562561,115.858147 418.756866,118.747169 
	C430.147552,122.763123 441.517090,122.568375 452.603973,115.144745 
M309.501282,213.787155 
	C315.303497,212.155640 321.676331,211.547974 326.797363,208.694122 
	C340.326569,201.154572 338.861969,180.255905 326.543213,175.166931 
	C322.154175,173.353775 317.710815,171.655136 313.224579,170.099258 
	C308.881927,168.593185 304.151093,167.894028 300.183777,165.745392 
	C298.097412,164.615448 296.108704,161.088135 296.219025,158.744232 
	C296.328827,156.411758 298.625183,153.209183 300.822937,152.113434 
	C311.348511,146.865585 320.340332,152.548752 321.236206,164.671463 
	C325.614594,164.671463 329.996552,164.671463 334.349701,164.671463 
	C335.285522,151.094788 329.413757,142.997147 316.450531,139.672241 
	C309.007507,137.763214 301.646759,137.996994 294.530853,141.007553 
	C286.772919,144.289749 283.045349,149.857193 282.777649,158.691895 
	C282.511322,167.483368 285.637207,173.413651 293.327667,177.080765 
	C295.984192,178.347473 298.866730,179.174896 301.697296,180.034134 
	C306.605377,181.523972 311.574707,182.812866 316.477814,184.318069 
	C320.289673,185.488235 322.995422,187.924118 322.773163,192.158188 
	C322.540344,196.593384 319.635559,199.411865 315.658783,200.822830 
	C304.059082,204.938507 294.676422,198.752914 293.908356,186.669632 
	C293.891998,186.412506 293.531830,186.177231 293.323608,185.922760 
	C290.041992,185.922760 286.760406,185.922760 282.991608,185.922760 
	C282.991608,189.522552 282.692139,193.011856 283.092377,196.418961 
	C283.379547,198.863419 284.119843,201.530151 285.492218,203.523285 
	C291.038055,211.577530 299.629395,213.231384 309.501282,213.787155 
M469.430054,196.910080 
	C468.141113,201.827042 466.852173,206.743988 465.493225,211.927948 
	C470.620392,211.927948 475.189606,211.927948 479.598602,211.927948 
	C480.964020,206.640396 482.234894,201.718948 483.468811,196.940582 
	C484.429993,196.813370 484.918121,196.693634 485.406494,196.692429 
	C492.063507,196.675980 498.727570,196.855255 505.374573,196.594543 
	C508.592072,196.468323 509.536652,197.707886 510.240509,200.666397 
	C513.153137,212.908829 513.275452,212.882812 525.994934,212.189255 
	C526.278442,212.173798 526.546021,211.865692 527.148926,211.489456 
	C520.888977,187.757095 514.601074,163.918610 508.335571,140.165161 
	C500.052551,140.165161 492.156281,140.165161 484.281311,140.165161 
	C479.370728,159.050507 474.548553,177.595840 469.430054,196.910080 
M631.822266,58.519699 
	C631.822266,78.794167 631.822266,99.068626 631.822266,119.542686 
	C647.623901,119.542686 663.000977,119.542686 678.581665,119.542686 
	C678.581665,115.506531 678.581665,111.773727 678.581665,107.428024 
	C667.439819,107.428024 656.539429,107.428024 645.559937,107.428024 
	C645.559937,101.121834 645.559937,95.436523 645.559937,89.406036 
	C655.554199,89.406036 665.173645,89.406036 674.928345,89.406036 
	C674.928345,85.145889 674.928345,81.243370 674.928345,76.867157 
	C664.953857,76.867157 655.224243,76.867157 645.469299,76.867157 
	C645.469299,70.977188 645.469299,65.569290 645.469299,59.677475 
	C656.489502,59.677475 667.230408,59.677475 677.836792,59.677475 
	C677.836792,55.271084 677.836792,51.360329 677.836792,47.411476 
	C662.413635,47.411476 647.334900,47.411476 631.822266,47.411476 
	C631.822266,50.945343 631.822266,54.236195 631.822266,58.519699 
M625.474121,139.811172 
	C613.730347,139.811172 601.986572,139.811172 590.313477,139.811172 
	C590.313477,164.338867 590.313477,188.233002 590.313477,211.994385 
	C606.055969,211.994385 621.479370,211.994385 637.074951,211.994385 
	C637.074951,207.964340 637.074951,204.212112 637.074951,199.970505 
	C626.000305,199.970505 615.101807,199.970505 604.167542,199.970505 
	C604.167542,193.751175 604.167542,188.025650 604.167542,181.840302 
	C614.169006,181.840302 623.902588,181.840302 633.677002,181.840302 
	C633.677002,177.599319 633.677002,173.828262 633.677002,169.488098 
	C623.761780,169.488098 614.031738,169.488098 604.093018,169.488098 
	C604.093018,163.505096 604.093018,158.093857 604.093018,152.216568 
	C614.887817,152.216568 625.473328,152.216568 636.245972,152.216568 
	C636.245972,147.861008 636.245972,143.974091 636.245972,139.811615 
	C632.768005,139.811615 629.615845,139.811615 625.474121,139.811172 
M779.463745,139.809662 
	C767.387878,139.809662 755.312012,139.809662 743.315491,139.809662 
	C743.315491,164.344238 743.315491,188.239258 743.315491,211.995499 
	C759.060974,211.995499 774.484985,211.995499 790.070557,211.995499 
	C790.070557,207.961624 790.070557,204.209290 790.070557,199.966766 
	C778.993774,199.966766 768.095215,199.966766 757.170166,199.966766 
	C757.170166,193.747101 757.170166,188.021545 757.170166,181.833145 
	C767.175720,181.833145 776.908997,181.833145 786.669861,181.833145 
	C786.669861,177.590912 786.669861,173.820923 786.669861,169.478073 
	C776.748596,169.478073 767.019409,169.478073 757.098877,169.478073 
	C757.098877,163.491623 757.098877,158.081406 757.098877,152.204865 
	C767.900635,152.204865 778.484802,152.204865 789.239502,152.204865 
	C789.239502,147.849014 789.239502,143.966278 789.239502,139.810059 
	C786.085876,139.810059 783.266479,139.810059 779.463745,139.809662 
M299.529205,59.865536 
	C309.307343,59.865536 319.085510,59.865536 328.915222,59.865536 
	C328.915222,55.371826 328.915222,51.458527 328.915222,47.511990 
	C313.762848,47.511990 298.890778,47.511990 284.161743,47.511990 
	C284.161743,71.776741 284.161743,95.675041 284.161743,119.677666 
	C288.630219,119.677666 292.745880,119.677666 297.424011,119.677666 
	C297.424011,109.782066 297.424011,100.042877 297.424011,89.679314 
	C307.519653,89.679314 317.066986,89.679314 326.420746,89.679314 
	C326.420746,85.141937 326.420746,81.251320 326.420746,76.930359 
	C316.561615,76.930359 307.132141,76.930359 297.057129,76.930359 
	C297.576752,70.940262 298.053955,65.439285 299.529205,59.865536 
M560.151855,75.502327 
	C560.151855,90.104012 560.151855,104.705704 560.151855,119.514809 
	C565.054077,119.514809 569.420532,119.514809 574.225586,119.514809 
	C574.225586,99.451050 574.225586,79.719757 574.225586,59.718422 
	C581.279419,59.718422 587.894104,59.718422 594.650696,59.718422 
	C594.650696,55.412647 594.650696,51.393803 594.650696,47.472260 
	C576.054749,47.472260 557.823914,47.472260 539.494080,47.472260 
	C539.494080,51.683235 539.494080,55.569660 539.494080,60.003437 
	C546.544067,60.003437 553.267944,60.003437 560.151855,60.003437 
	C560.151855,65.205017 560.151855,69.854073 560.151855,75.502327 
M395.862854,147.428055 
	C395.862854,144.986862 395.862854,142.545670 395.862854,140.174103 
	C376.897369,140.174103 358.532135,140.174103 340.236694,140.174103 
	C340.236694,144.309464 340.236694,148.079071 340.236694,152.300888 
	C347.202637,152.300888 353.936462,152.300888 361.087585,152.300888 
	C361.087585,172.498383 361.087585,192.236923 361.087585,211.907501 
	C365.901123,211.907501 370.278198,211.907501 375.129089,211.907501 
	C375.129089,191.849243 375.129089,172.144547 375.129089,152.195358 
	C381.090027,152.195358 386.572510,152.023529 392.037079,152.262512 
	C395.107086,152.396774 396.412109,151.473114 395.862854,147.428055 
M559.888611,183.500046 
	C559.888611,173.222168 559.888611,162.944290 559.888611,152.152283 
	C567.036926,152.152283 573.767822,152.152283 580.490173,152.152283 
	C580.490173,147.749374 580.490173,143.878204 580.490173,140.052155 
	C561.870667,140.052155 543.623169,140.052155 525.292358,140.052155 
	C525.292358,144.193146 525.292358,148.086884 525.292358,152.424896 
	C532.323914,152.424896 539.066406,152.424896 546.196228,152.424896 
	C546.196228,172.615021 546.196228,192.359268 546.196228,212.053223 
	C550.888000,212.053223 555.166321,212.053223 559.889343,212.053223 
	C559.889343,202.730499 559.889343,193.615280 559.888611,183.500046 
M729.578003,174.500549 
	C729.578003,163.064301 729.578003,151.628052 729.578003,140.120575 
	C724.748291,140.120575 720.496765,140.120575 716.028442,140.120575 
	C716.028442,164.234512 716.028442,188.109039 716.028442,212.140503 
	C720.566895,212.140503 724.971191,212.140503 729.579224,212.140503 
	C729.579224,199.728867 729.579224,187.614716 729.578003,174.500549 
M618.051758,67.500244 
	C618.051758,60.894615 618.051758,54.288986 618.051758,47.644398 
	C613.160828,47.644398 608.803772,47.644398 604.652222,47.644398 
	C604.652222,71.933647 604.652222,95.832436 604.652222,119.646378 
	C609.245728,119.646378 613.502502,119.646378 617.679260,119.646378 
	C617.843262,119.050285 618.001892,118.741913 618.002380,118.433304 
	C618.027222,101.788933 618.038818,85.144554 618.051758,67.500244 
z"/>
<path fill="#F2F2F2" opacity="1.000000" stroke="none" 
	d="
M108.338303,173.645309 
	C108.516220,149.870346 108.132790,126.535828 109.025696,103.250267 
	C109.931870,79.618637 129.884674,58.612595 153.455551,55.252163 
	C157.130585,54.728226 159.060501,53.681870 160.253937,49.823612 
	C162.500198,42.561604 168.578369,39.340893 175.648712,38.063557 
	C178.505203,37.547493 180.503616,38.973015 180.571732,42.188862 
	C180.691513,47.845142 180.599960,53.513092 180.958176,59.153210 
	C181.082840,61.115948 181.867157,63.318565 183.046722,64.888199 
	C192.989731,78.119102 203.059296,91.255661 213.176926,104.354050 
	C215.488373,107.346474 215.716705,109.841629 212.796829,112.598396 
	C208.559174,116.599335 204.418320,120.715897 200.439423,124.973114 
	C197.887909,127.703094 195.355637,127.664650 192.490601,125.800491 
	C191.935028,125.439003 191.394760,125.039284 190.904526,124.594307 
	C184.123154,118.439171 175.965500,118.356850 167.575500,119.286125 
	C164.830765,133.940414 171.104187,146.451385 181.463989,152.789307 
	C185.037292,154.975372 186.765762,157.521393 186.270828,161.661499 
	C186.094131,163.139557 186.347137,164.664825 186.229599,166.154800 
	C185.727585,172.519119 185.770950,177.603241 194.115616,179.876877 
	C200.325531,181.568878 203.640244,187.942978 203.976395,194.772644 
	C204.311737,201.585815 204.289810,208.420319 204.285278,215.245377 
	C204.281464,221.007446 203.406021,221.824387 197.560043,221.827682 
	C166.906265,221.844971 136.252487,221.835770 105.598717,221.835800 
	C92.971581,221.835800 92.971703,221.835815 92.974884,209.095871 
	C92.975548,206.430328 93.149475,203.751251 92.944275,201.101593 
	C92.116295,190.410263 95.467850,182.239914 106.060196,177.959732 
	C107.158661,177.515854 107.593956,175.430786 108.338303,173.645309 
M197.980713,96.559387 
	C191.581741,88.313499 185.280518,79.989128 178.746277,71.851860 
	C174.973602,67.153648 172.476685,62.282066 173.385132,55.988873 
	C173.813782,53.019390 173.458618,49.936756 173.458618,46.905396 
	C172.778778,46.675503 172.098938,46.445610 171.419098,46.215721 
	C169.782303,48.824291 166.839645,51.396271 166.765320,54.048622 
	C166.578339,60.721806 163.004166,61.506809 157.565308,61.993912 
	C138.719437,63.681767 122.451942,77.598907 117.842941,95.938637 
	C116.523849,101.187454 116.001724,106.753960 115.948921,112.182922 
	C115.740288,133.632919 115.863281,155.086121 115.863281,176.731049 
	C137.121857,176.731049 157.977676,176.731049 178.756989,176.731049 
	C179.718750,167.585159 180.884354,158.726166 170.793289,153.821625 
	C169.967743,153.420380 169.454880,152.372223 168.801834,151.620224 
	C161.484528,143.194092 159.224396,133.191498 159.834808,122.359543 
	C160.045837,118.615059 159.071472,116.006653 155.801361,113.542549 
	C151.114517,110.010918 149.136963,104.640289 148.957748,98.693954 
	C148.871017,95.816170 149.232971,92.744308 152.607208,92.897797 
	C153.865219,92.955025 155.710693,96.266846 156.016525,98.287140 
	C157.340607,107.033813 161.641815,112.036392 169.733078,111.656319 
	C179.192368,111.211983 187.885239,112.352310 195.374039,118.619072 
	C195.533493,118.752510 195.987701,118.533691 196.386719,118.465042 
	C196.825729,118.058601 197.325226,117.619255 197.799255,117.153938 
	C207.644241,107.489586 207.643661,107.488991 197.980713,96.559387 
M104.812424,187.120499 
	C103.300125,190.458801 101.175102,193.668488 100.440201,197.169952 
	C99.633835,201.012009 100.358017,205.148178 99.958176,209.110062 
	C99.526718,213.385223 101.195984,214.382889 105.277855,214.359680 
	C134.100906,214.195694 162.925354,214.276764 191.749344,214.260269 
	C193.342758,214.259354 194.936081,214.085892 196.740005,213.980423 
	C196.831879,212.091873 196.969193,210.623077 196.962448,209.154938 
	C196.941803,204.659790 197.189224,200.132172 196.738663,195.677246 
	C195.985199,188.227325 191.757050,184.706192 183.995789,184.692795 
	C160.336868,184.651962 136.677429,184.618622 113.019363,184.766449 
	C110.503197,184.782166 107.994614,186.011719 104.812424,187.120499 
z"/>
<path fill="#E8E8E7" opacity="1.000000" stroke="none" 
	d="
M502.138672,55.688950 
	C506.374786,74.100212 510.506500,92.106140 514.638245,110.112076 
	C515.170898,110.055573 515.703613,109.999077 516.236328,109.942581 
	C516.236328,89.184937 516.236328,68.427299 516.236328,47.416683 
	C521.113586,47.416683 525.204285,47.416683 529.657288,47.416683 
	C529.657288,71.390182 529.657288,95.407478 529.657288,119.640152 
	C521.094910,119.640152 512.673584,119.640152 503.965240,119.640152 
	C499.168152,98.686157 494.388641,77.809021 489.609131,56.931889 
	C489.127136,56.997337 488.645111,57.062790 488.163086,57.128239 
	C488.163086,77.767914 488.163086,98.407585 488.163086,119.449173 
	C483.367310,119.449173 479.143524,119.449173 474.532104,119.449173 
	C474.532104,95.661316 474.532104,71.779030 474.532104,47.522724 
	C482.894897,47.522724 491.311981,47.522724 500.351837,47.522724 
	C500.860107,49.867275 501.447174,52.575447 502.138672,55.688950 
z"/>
<path fill="#ECECEA" opacity="1.000000" stroke="none" 
	d="
M385.910278,119.843826 
	C382.950378,119.843864 380.462921,119.843864 377.161865,119.843864 
	C377.161865,113.206909 377.180664,106.793198 377.156769,100.379646 
	C377.131256,93.538895 376.284088,92.642448 369.413727,92.530838 
	C364.098755,92.444489 358.781250,92.513603 353.031952,92.513603 
	C353.031952,101.488861 353.031952,110.248825 353.031952,119.424911 
	C348.250214,119.424911 343.890625,119.424911 339.253845,119.424911 
	C339.253845,95.551369 339.253845,71.657669 339.253845,48.173725 
	C352.192017,48.173725 365.123322,47.559662 377.958771,48.403614 
	C385.680542,48.911335 391.311798,55.807194 392.557983,63.210258 
	C394.133636,72.570541 391.651520,78.537399 384.275238,83.261299 
	C383.494965,83.761002 382.863831,84.493568 381.359863,85.834831 
	C392.376923,87.669373 390.992493,95.612122 391.006134,102.858124 
	C391.016418,108.326447 391.008148,113.794792 391.008148,119.583351 
	C389.265442,119.681480 387.824066,119.762634 385.910278,119.843826 
M367.283569,79.997658 
	C368.609039,79.950272 369.956512,80.040031 371.256073,79.831284 
	C376.331421,79.016037 379.078430,75.653091 379.260162,70.183777 
	C379.429230,65.095024 376.894043,60.845242 372.121063,60.376488 
	C365.796997,59.755402 359.366028,60.223461 353.144653,60.223461 
	C353.144653,66.963516 353.144653,73.352379 353.144653,79.997505 
	C357.747437,79.997505 362.042450,79.997505 367.283569,79.997658 
z"/>
<path fill="#EAEAE8" opacity="1.000000" stroke="none" 
	d="
M691.965454,175.115692 
	C695.751770,175.115723 699.044067,175.115723 702.617310,175.115723 
	C702.617310,187.675613 702.617310,199.756409 702.617310,212.060867 
	C698.640076,212.060867 694.681396,212.060867 690.369812,212.060867 
	C690.189819,210.035080 690.009766,208.007431 689.817078,205.838562 
	C689.047241,205.960327 688.406555,205.862625 688.156067,206.130188 
	C680.213196,214.615601 668.699585,216.391846 658.683350,210.380768 
	C651.609253,206.135330 646.848389,199.770370 646.301575,191.578461 
	C645.616211,181.311127 645.559875,170.915543 646.349121,160.661270 
	C647.080505,151.158646 652.890137,144.706375 661.704041,140.858505 
	C674.776367,135.151566 692.186096,138.989883 698.717529,149.897278 
	C701.241943,154.112991 702.081299,159.337753 703.899902,164.730057 
	C698.252930,164.730057 693.838623,164.730057 689.445801,164.730057 
	C688.054138,154.888702 683.567566,150.679688 674.646484,150.695251 
	C666.153931,150.710068 660.482910,155.544907 659.779602,164.769867 
	C659.163574,172.849594 659.230957,181.072617 659.982483,189.140472 
	C660.780090,197.702057 667.948914,202.579636 676.692078,201.616241 
	C685.225525,200.675980 689.085327,196.137009 688.812378,187.025482 
	C683.539429,187.025482 678.247742,187.025482 672.531860,187.025482 
	C672.531860,183.025192 672.531860,179.342377 672.531860,175.115677 
	C678.905396,175.115677 685.188416,175.115677 691.965454,175.115692 
z"/>
<path fill="#ECECEA" opacity="1.000000" stroke="none" 
	d="
M688.994141,57.040955 
	C688.994080,53.584106 688.994080,50.619781 688.994080,46.396828 
	C702.645813,47.219116 715.891724,47.489033 728.992676,49.008865 
	C736.558411,49.886551 741.090576,55.529232 742.450012,63.106644 
	C743.913879,71.266342 742.069824,78.280457 734.583923,82.989571 
	C733.896729,83.421837 733.267944,83.963326 732.676392,84.522224 
	C732.466614,84.720490 732.448547,85.121735 732.148010,86.000214 
	C741.245422,87.622643 740.994568,94.583717 740.863525,101.572540 
	C740.754517,107.389801 740.841248,113.210732 740.841248,119.435989 
	C736.365112,119.435989 732.144470,119.435989 727.163208,119.435989 
	C727.163208,113.278778 727.197327,107.017807 727.154114,100.757370 
	C727.105896,93.772942 725.965332,92.607063 719.042480,92.524818 
	C713.746582,92.461899 708.449402,92.512306 702.609131,92.512306 
	C702.609131,101.684845 702.609131,110.428307 702.609131,119.502335 
	C697.995239,119.502335 693.911438,119.502335 688.994141,119.502335 
	C688.994141,99.002167 688.994141,78.267822 688.994141,57.040955 
M711.537354,80.007942 
	C714.519531,79.966675 717.515869,80.095268 720.480713,79.847244 
	C725.924927,79.391800 729.035645,75.889046 729.164917,70.390625 
	C729.307068,64.349007 726.562439,60.559380 720.816528,60.133404 
	C714.908752,59.695427 708.943237,60.036205 702.804749,60.036205 
	C702.804749,66.739281 702.804749,73.261681 702.804749,80.007942 
	C705.610291,80.007942 708.089355,80.007942 711.537354,80.007942 
z"/>
<path fill="#EDEDEB" opacity="1.000000" stroke="none" 
	d="
M425.073853,185.007874 
	C422.930695,185.007812 421.275360,185.007812 418.902679,185.007812 
	C418.902679,189.555817 418.902679,193.964767 418.902679,198.373703 
	C418.902679,202.839264 418.902679,207.304825 418.902679,212.016144 
	C414.230347,212.016144 409.954651,212.016144 405.334290,212.016144 
	C405.334290,188.242722 405.334290,164.345734 405.334290,139.696426 
	C419.046417,140.854141 432.972961,137.674637 446.634094,141.819397 
	C453.729370,143.972092 457.757721,149.021729 458.703094,156.195114 
	C459.707153,163.813858 458.535217,170.847977 451.094574,175.244736 
	C450.249207,175.744263 449.483948,176.392853 448.737671,177.037338 
	C448.547760,177.201401 448.573181,177.614822 448.374054,178.424210 
	C456.623993,180.021362 457.278442,186.206543 457.050903,193.088501 
	C456.843231,199.369278 457.006897,205.662323 457.006897,212.108444 
	C452.235718,212.108444 447.954742,212.108444 443.106232,212.108444 
	C443.106232,205.395767 443.143738,198.779190 443.094910,192.163239 
	C443.052155,186.377289 441.845978,185.155853 436.059082,185.022858 
	C432.561676,184.942459 429.060913,185.007965 425.073853,185.007874 
M444.412170,157.595215 
	C442.400757,156.024353 440.537140,153.387527 438.350037,153.084351 
	C432.024811,152.207504 425.569458,152.269547 418.869659,151.948883 
	C418.869659,155.952850 418.869659,159.103821 418.869659,162.254776 
	C418.869659,165.537460 418.869659,168.820145 418.869659,172.385590 
	C423.747437,172.385590 428.056152,172.389542 432.364899,172.384811 
	C443.144958,172.372955 445.937958,169.201859 444.412170,157.595215 
z"/>
<path fill="#EAEAE8" opacity="1.000000" stroke="none" 
	d="
M801.206726,149.456085 
	C809.643738,134.460892 838.409851,135.827103 846.768005,147.932068 
	C849.818726,152.350357 851.240845,156.869995 850.809143,164.720840 
	C846.572998,164.720840 842.313110,164.720840 837.994019,164.720840 
	C837.859863,164.526367 837.531616,164.268677 837.509521,163.986984 
	C836.617859,152.607178 829.556580,147.786346 818.419373,151.140106 
	C814.786377,152.234100 812.409058,154.826324 812.310608,158.733276 
	C812.206665,162.858627 814.487671,165.702225 818.366455,166.899979 
	C823.414185,168.458694 828.595154,169.583038 833.652344,171.113831 
	C840.908325,173.310165 848.102234,176.088974 851.392517,183.559250 
	C855.581543,193.069855 851.715088,204.403534 842.575317,209.412064 
	C831.317505,215.581207 819.585083,215.523499 808.384888,209.380829 
	C799.478760,204.496262 796.296326,196.238876 797.145752,186.015701 
	C801.574524,186.015701 805.823181,186.015701 810.038696,186.015701 
	C810.245422,186.364304 810.539429,186.635590 810.559021,186.925430 
	C811.431580,199.834213 823.633118,206.488571 834.702881,199.617416 
	C837.026917,198.174835 838.738037,194.240662 838.911072,191.345764 
	C839.034058,189.288788 836.548645,185.996216 834.441833,185.098221 
	C829.171875,182.851959 823.424377,181.751282 817.924683,180.013214 
	C810.436768,177.646835 802.778992,175.283066 799.963440,166.719788 
	C798.089661,161.020676 798.175598,155.279648 801.206726,149.456085 
z"/>
<path fill="#EDEDEC" opacity="1.000000" stroke="none" 
	d="
M452.333130,115.383553 
	C441.517090,122.568375 430.147552,122.763123 418.756866,118.747169 
	C410.562561,115.858147 404.728943,109.414062 403.995178,100.838867 
	C403.011627,89.343529 402.850189,77.578766 404.175201,66.142799 
	C405.419098,55.406464 413.252228,49.209110 423.774933,46.985405 
	C434.067261,44.810394 443.908722,45.671696 452.649658,52.267933 
	C457.660278,56.049156 461.078064,61.226780 461.354553,67.257469 
	C461.869019,78.478386 461.700043,89.772430 461.026611,100.988655 
	C460.682495,106.720497 457.246521,111.509964 452.333130,115.383553 
M448.839325,89.332214 
	C448.757416,84.012054 448.934814,78.672485 448.538300,73.375870 
	C447.768158,63.087090 441.924316,57.840076 432.076416,58.165844 
	C422.377380,58.486687 416.739563,64.301270 416.511719,74.458305 
	C416.369904,80.779968 416.386017,87.109337 416.510284,93.431725 
	C416.665314,101.320015 420.285217,106.237381 427.326782,108.212044 
	C437.177887,110.974564 449.264435,107.559280 448.839325,89.332214 
z"/>
<path fill="#EBEBE9" opacity="1.000000" stroke="none" 
	d="
M309.057068,213.796875 
	C299.629395,213.231384 291.038055,211.577530 285.492218,203.523285 
	C284.119843,201.530151 283.379547,198.863419 283.092377,196.418961 
	C282.692139,193.011856 282.991608,189.522552 282.991608,185.922760 
	C286.760406,185.922760 290.041992,185.922760 293.327820,185.927261 
	C293.531830,186.177231 293.891998,186.412506 293.908356,186.669632 
	C294.676422,198.752914 304.059082,204.938507 315.658783,200.822830 
	C319.635559,199.411865 322.540344,196.593384 322.773163,192.158188 
	C322.995422,187.924118 320.289673,185.488235 316.477814,184.318069 
	C311.574707,182.812866 306.605377,181.523972 301.697296,180.034134 
	C298.866730,179.174896 295.984192,178.347473 293.327667,177.080765 
	C285.637207,173.413651 282.511322,167.483368 282.777649,158.691895 
	C283.045349,149.857193 286.772919,144.289749 294.530853,141.007553 
	C301.646759,137.996994 309.007507,137.763214 316.450531,139.672241 
	C329.413757,142.997147 335.285522,151.094788 334.349701,164.671463 
	C329.996552,164.671463 325.614594,164.671463 321.236206,164.671463 
	C320.340332,152.548752 311.348511,146.865585 300.822937,152.113434 
	C298.625183,153.209183 296.328827,156.411758 296.219025,158.744232 
	C296.108704,161.088135 298.097412,164.615448 300.183777,165.745392 
	C304.151093,167.894028 308.881927,168.593185 313.224579,170.099258 
	C317.710815,171.655136 322.154175,173.353775 326.543213,175.166931 
	C338.861969,180.255905 340.326569,201.154572 326.797363,208.694122 
	C321.676331,211.547974 315.303497,212.155640 309.057068,213.796875 
z"/>
<path fill="#EBEBEA" opacity="1.000000" stroke="none" 
	d="
M469.578217,196.525620 
	C474.548553,177.595840 479.370728,159.050507 484.281311,140.165161 
	C492.156281,140.165161 500.052551,140.165161 508.335571,140.165161 
	C514.601074,163.918610 520.888977,187.757095 527.148926,211.489456 
	C526.546021,211.865692 526.278442,212.173798 525.994934,212.189255 
	C513.275452,212.882812 513.153137,212.908829 510.240509,200.666397 
	C509.536652,197.707886 508.592072,196.468323 505.374573,196.594543 
	C498.727570,196.855255 492.063507,196.675980 485.406494,196.692429 
	C484.918121,196.693634 484.429993,196.813370 483.468811,196.940582 
	C482.234894,201.718948 480.964020,206.640396 479.598602,211.927948 
	C475.189606,211.927948 470.620392,211.927948 465.493225,211.927948 
	C466.852173,206.743988 468.141113,201.827042 469.578217,196.525620 
M494.200745,152.956390 
	C491.754089,163.056992 489.307404,173.157593 486.785400,183.569275 
	C493.354279,183.569275 499.460632,183.569275 505.993866,183.569275 
	C503.012512,171.758102 500.066376,160.086594 497.120239,148.415085 
	C496.629333,148.487320 496.138428,148.559555 495.647522,148.631775 
	C495.234467,149.823669 494.821411,151.015564 494.200745,152.956390 
z"/>
<path fill="#ECECEA" opacity="1.000000" stroke="none" 
	d="
M631.822266,58.023369 
	C631.822266,54.236195 631.822266,50.945343 631.822266,47.411476 
	C647.334900,47.411476 662.413635,47.411476 677.836792,47.411476 
	C677.836792,51.360329 677.836792,55.271084 677.836792,59.677475 
	C667.230408,59.677475 656.489502,59.677475 645.469299,59.677475 
	C645.469299,65.569290 645.469299,70.977188 645.469299,76.867157 
	C655.224243,76.867157 664.953857,76.867157 674.928345,76.867157 
	C674.928345,81.243370 674.928345,85.145889 674.928345,89.406036 
	C665.173645,89.406036 655.554199,89.406036 645.559937,89.406036 
	C645.559937,95.436523 645.559937,101.121834 645.559937,107.428024 
	C656.539429,107.428024 667.439819,107.428024 678.581665,107.428024 
	C678.581665,111.773727 678.581665,115.506531 678.581665,119.542686 
	C663.000977,119.542686 647.623901,119.542686 631.822266,119.542686 
	C631.822266,99.068626 631.822266,78.794167 631.822266,58.023369 
z"/>
<path fill="#EDEDEB" opacity="1.000000" stroke="none" 
	d="
M625.968872,139.811401 
	C629.615845,139.811615 632.768005,139.811615 636.245972,139.811615 
	C636.245972,143.974091 636.245972,147.861008 636.245972,152.216568 
	C625.473328,152.216568 614.887817,152.216568 604.093018,152.216568 
	C604.093018,158.093857 604.093018,163.505096 604.093018,169.488098 
	C614.031738,169.488098 623.761780,169.488098 633.677002,169.488098 
	C633.677002,173.828262 633.677002,177.599319 633.677002,181.840302 
	C623.902588,181.840302 614.169006,181.840302 604.167542,181.840302 
	C604.167542,188.025650 604.167542,193.751175 604.167542,199.970505 
	C615.101807,199.970505 626.000305,199.970505 637.074951,199.970505 
	C637.074951,204.212112 637.074951,207.964340 637.074951,211.994385 
	C621.479370,211.994385 606.055969,211.994385 590.313477,211.994385 
	C590.313477,188.233002 590.313477,164.338867 590.313477,139.811172 
	C601.986572,139.811172 613.730347,139.811172 625.968872,139.811401 
z"/>
<path fill="#EDEDEB" opacity="1.000000" stroke="none" 
	d="
M779.955444,139.809860 
	C783.266479,139.810059 786.085876,139.810059 789.239502,139.810059 
	C789.239502,143.966278 789.239502,147.849014 789.239502,152.204865 
	C778.484802,152.204865 767.900635,152.204865 757.098877,152.204865 
	C757.098877,158.081406 757.098877,163.491623 757.098877,169.478073 
	C767.019409,169.478073 776.748596,169.478073 786.669861,169.478073 
	C786.669861,173.820923 786.669861,177.590912 786.669861,181.833145 
	C776.908997,181.833145 767.175720,181.833145 757.170166,181.833145 
	C757.170166,188.021545 757.170166,193.747101 757.170166,199.966766 
	C768.095215,199.966766 778.993774,199.966766 790.070557,199.966766 
	C790.070557,204.209290 790.070557,207.961624 790.070557,211.995499 
	C774.484985,211.995499 759.060974,211.995499 743.315491,211.995499 
	C743.315491,188.239258 743.315491,164.344238 743.315491,139.809662 
	C755.312012,139.809662 767.387878,139.809662 779.955444,139.809860 
z"/>
<path fill="#E8E8E7" opacity="1.000000" stroke="none" 
	d="
M299.030182,59.901924 
	C298.053955,65.439285 297.576752,70.940262 297.057129,76.930359 
	C307.132141,76.930359 316.561615,76.930359 326.420746,76.930359 
	C326.420746,81.251320 326.420746,85.141937 326.420746,89.679314 
	C317.066986,89.679314 307.519653,89.679314 297.424011,89.679314 
	C297.424011,100.042877 297.424011,109.782066 297.424011,119.677666 
	C292.745880,119.677666 288.630219,119.677666 284.161743,119.677666 
	C284.161743,95.675041 284.161743,71.776741 284.161743,47.511990 
	C298.890778,47.511990 313.762848,47.511990 328.915222,47.511990 
	C328.915222,51.458527 328.915222,55.371826 328.915222,59.865536 
	C319.085510,59.865536 309.307343,59.865536 299.030182,59.901924 
z"/>
<path fill="#E9E9E7" opacity="1.000000" stroke="none" 
	d="
M560.151855,75.002731 
	C560.151855,69.854073 560.151855,65.205017 560.151855,60.003437 
	C553.267944,60.003437 546.544067,60.003437 539.494080,60.003437 
	C539.494080,55.569660 539.494080,51.683235 539.494080,47.472260 
	C557.823914,47.472260 576.054749,47.472260 594.650696,47.472260 
	C594.650696,51.393803 594.650696,55.412647 594.650696,59.718422 
	C587.894104,59.718422 581.279419,59.718422 574.225586,59.718422 
	C574.225586,79.719757 574.225586,99.451050 574.225586,119.514809 
	C569.420532,119.514809 565.054077,119.514809 560.151855,119.514809 
	C560.151855,104.705704 560.151855,90.104012 560.151855,75.002731 
z"/>
<path fill="#EEEEEC" opacity="1.000000" stroke="none" 
	d="
M395.863159,147.901550 
	C396.412109,151.473114 395.107086,152.396774 392.037079,152.262512 
	C386.572510,152.023529 381.090027,152.195358 375.129089,152.195358 
	C375.129089,172.144547 375.129089,191.849243 375.129089,211.907501 
	C370.278198,211.907501 365.901123,211.907501 361.087585,211.907501 
	C361.087585,192.236923 361.087585,172.498383 361.087585,152.300888 
	C353.936462,152.300888 347.202637,152.300888 340.236694,152.300888 
	C340.236694,148.079071 340.236694,144.309464 340.236694,140.174103 
	C358.532135,140.174103 376.897369,140.174103 395.862854,140.174103 
	C395.862854,142.545670 395.862854,144.986862 395.863159,147.901550 
z"/>
<path fill="#EEEEEC" opacity="1.000000" stroke="none" 
	d="
M559.888977,184.000061 
	C559.889343,193.615280 559.889343,202.730499 559.889343,212.053223 
	C555.166321,212.053223 550.888000,212.053223 546.196228,212.053223 
	C546.196228,192.359268 546.196228,172.615021 546.196228,152.424896 
	C539.066406,152.424896 532.323914,152.424896 525.292358,152.424896 
	C525.292358,148.086884 525.292358,144.193146 525.292358,140.052155 
	C543.623169,140.052155 561.870667,140.052155 580.490173,140.052155 
	C580.490173,143.878204 580.490173,147.749374 580.490173,152.152283 
	C573.767822,152.152283 567.036926,152.152283 559.888611,152.152283 
	C559.888611,162.944290 559.888611,173.222168 559.888977,184.000061 
z"/>
<path fill="#EAEAE8" opacity="1.000000" stroke="none" 
	d="
M729.578613,175.000549 
	C729.579224,187.614716 729.579224,199.728867 729.579224,212.140503 
	C724.971191,212.140503 720.566895,212.140503 716.028442,212.140503 
	C716.028442,188.109039 716.028442,164.234512 716.028442,140.120575 
	C720.496765,140.120575 724.748291,140.120575 729.578003,140.120575 
	C729.578003,151.628052 729.578003,163.064301 729.578613,175.000549 
z"/>
<path fill="#E8E8E6" opacity="1.000000" stroke="none" 
	d="
M618.051758,68.000206 
	C618.038818,85.144554 618.027222,101.788933 618.002380,118.433304 
	C618.001892,118.741913 617.843262,119.050285 617.679260,119.646378 
	C613.502502,119.646378 609.245728,119.646378 604.652222,119.646378 
	C604.652222,95.832436 604.652222,71.933647 604.652222,47.644398 
	C608.803772,47.644398 613.160828,47.644398 618.051758,47.644398 
	C618.051758,54.288986 618.051758,60.894615 618.051758,68.000206 
z"/>
<path fill="#121212" opacity="1.000000" stroke="none" 
	d="
M198.126587,96.885483 
	C207.643661,107.488991 207.644241,107.489586 197.799255,117.153938 
	C197.325226,117.619255 196.825729,118.058601 196.386719,118.465042 
	C195.987701,118.533691 195.533493,118.752510 195.374039,118.619072 
	C187.885239,112.352310 179.192368,111.211983 169.733078,111.656319 
	C161.641815,112.036392 157.340607,107.033813 156.016525,98.287140 
	C155.710693,96.266846 153.865219,92.955025 152.607208,92.897797 
	C149.232971,92.744308 148.871017,95.816170 148.957748,98.693954 
	C149.136963,104.640289 151.114517,110.010918 155.801361,113.542549 
	C159.071472,116.006653 160.045837,118.615059 159.834808,122.359543 
	C159.224396,133.191498 161.484528,143.194092 168.801834,151.620224 
	C169.454880,152.372223 169.967743,153.420380 170.793289,153.821625 
	C180.884354,158.726166 179.718750,167.585159 178.756989,176.731049 
	C157.977676,176.731049 137.121857,176.731049 115.863281,176.731049 
	C115.863281,155.086121 115.740288,133.632919 115.948921,112.182922 
	C116.001724,106.753960 116.523849,101.187454 117.842941,95.938637 
	C122.451942,77.598907 138.719437,63.681767 157.565308,61.993912 
	C163.004166,61.506809 166.578339,60.721806 166.765320,54.048622 
	C166.839645,51.396271 169.782303,48.824291 171.419098,46.215721 
	C172.098938,46.445610 172.778778,46.675503 173.458618,46.905396 
	C173.458618,49.936756 173.813782,53.019390 173.385132,55.988873 
	C172.476685,62.282066 174.973602,67.153648 178.746277,71.851860 
	C185.280518,79.989128 191.581741,88.313499 198.126587,96.885483 
z"/>
<path fill="#121212" opacity="1.000000" stroke="none" 
	d="
M105.147469,186.899323 
	C107.994614,186.011719 110.503197,184.782166 113.019363,184.766449 
	C136.677429,184.618622 160.336868,184.651962 183.995789,184.692795 
	C191.757050,184.706192 195.985199,188.227325 196.738663,195.677246 
	C197.189224,200.132172 196.941803,204.659790 196.962448,209.154938 
	C196.969193,210.623077 196.831879,212.091873 196.740005,213.980423 
	C194.936081,214.085892 193.342758,214.259354 191.749344,214.260269 
	C162.925354,214.276764 134.100906,214.195694 105.277855,214.359680 
	C101.195984,214.382889 99.526718,213.385223 99.958176,209.110062 
	C100.358017,205.148178 99.633835,201.012009 100.440201,197.169952 
	C101.175102,193.668488 103.300125,190.458801 105.147469,186.899323 
z"/>
<path fill="#141413" opacity="1.000000" stroke="none" 
	d="
M366.810486,79.997581 
	C362.042450,79.997505 357.747437,79.997505 353.144653,79.997505 
	C353.144653,73.352379 353.144653,66.963516 353.144653,60.223461 
	C359.366028,60.223461 365.796997,59.755402 372.121063,60.376488 
	C376.894043,60.845242 379.429230,65.095024 379.260162,70.183777 
	C379.078430,75.653091 376.331421,79.016037 371.256073,79.831284 
	C369.956512,80.040031 368.609039,79.950272 366.810486,79.997581 
z"/>
<path fill="#181818" opacity="1.000000" stroke="none" 
	d="
M711.052856,80.007942 
	C708.089355,80.007942 705.610291,80.007942 702.804749,80.007942 
	C702.804749,73.261681 702.804749,66.739281 702.804749,60.036205 
	C708.943237,60.036205 714.908752,59.695427 720.816528,60.133404 
	C726.562439,60.559380 729.307068,64.349007 729.164917,70.390625 
	C729.035645,75.889046 725.924927,79.391800 720.480713,79.847244 
	C717.515869,80.095268 714.519531,79.966675 711.052856,80.007942 
z"/>
<path fill="#141413" opacity="1.000000" stroke="none" 
	d="
M444.573486,157.971649 
	C445.937958,169.201859 443.144958,172.372955 432.364899,172.384811 
	C428.056152,172.389542 423.747437,172.385590 418.869659,172.385590 
	C418.869659,168.820145 418.869659,165.537460 418.869659,162.254776 
	C418.869659,159.103821 418.869659,155.952850 418.869659,151.948883 
	C425.569458,152.269547 432.024811,152.207504 438.350037,153.084351 
	C440.537140,153.387527 442.400757,156.024353 444.573486,157.971649 
z"/>
<path fill="#161616" opacity="1.000000" stroke="none" 
	d="
M448.839325,89.805649 
	C449.264435,107.559280 437.177887,110.974564 427.326782,108.212044 
	C420.285217,106.237381 416.665314,101.320015 416.510284,93.431725 
	C416.386017,87.109337 416.369904,80.779968 416.511719,74.458305 
	C416.739563,64.301270 422.377380,58.486687 432.076416,58.165844 
	C441.924316,57.840076 447.768158,63.087090 448.538300,73.375870 
	C448.934814,78.672485 448.757416,84.012054 448.839325,89.805649 
z"/>
<path fill="#191919" opacity="1.000000" stroke="none" 
	d="
M494.304565,152.581924 
	C494.821411,151.015564 495.234467,149.823669 495.647522,148.631775 
	C496.138428,148.559555 496.629333,148.487320 497.120239,148.415085 
	C500.066376,160.086594 503.012512,171.758102 505.993866,183.569275 
	C499.460632,183.569275 493.354279,183.569275 486.785400,183.569275 
	C489.307404,173.157593 491.754089,163.056992 494.304565,152.581924 
z"/>
</svg>