<svg version="1.1" id="Layer_1" xmlns="http://www.w3.org/2000/svg" xmlns:xlink="http://www.w3.org/1999/xlink" x="0px" y="0px"
	 width="100%" viewBox="0 0 400 400" enable-background="new 0 0 400 400" xml:space="preserve">
<path fill="#111111" opacity="1.000000" stroke="none" 
	d="
M186.000000,401.000000 
	C124.019218,401.000000 62.538429,401.000000 1.028823,401.000000 
	C1.028823,267.727539 1.028823,134.455093 1.028823,1.091313 
	C134.230743,1.091313 267.461548,1.091313 400.846191,1.091313 
	C400.846191,134.333191 400.846191,267.666565 400.846191,401.000000 
	C329.455170,401.000000 257.977570,401.000000 186.000000,401.000000 
M135.983795,286.473145 
	C135.983795,288.306183 135.982239,290.139191 135.984085,291.972229 
	C135.991913,299.758881 136.250076,300.013763 144.260864,300.015259 
	C160.591782,300.018311 176.922684,300.016205 193.253601,300.016144 
	C211.417572,300.016052 229.581604,299.990021 247.745453,300.038147 
	C251.245071,300.047424 254.198868,299.642914 254.172791,295.143005 
	C254.125488,286.978790 254.386322,278.799377 253.966354,270.654785 
	C253.587433,263.306244 249.948929,256.551483 243.125824,254.599609 
	C234.997513,252.274353 234.540634,247.513580 235.155670,241.036041 
	C235.375214,238.723907 235.050659,236.363037 235.222809,234.042831 
	C235.485275,230.505325 234.220581,228.365814 230.970917,226.469376 
	C218.318298,219.085556 212.011078,203.608337 215.431656,189.660217 
	C224.860764,188.260101 233.705399,189.155975 241.029633,196.039139 
	C241.269272,196.264343 241.586288,196.404907 241.853302,196.603638 
	C244.856369,198.838425 247.466431,198.779190 250.143478,195.812576 
	C254.046600,191.487274 258.237701,187.422165 262.296631,183.237045 
	C267.093506,178.291122 267.118652,178.167435 262.839508,172.482834 
	C255.427139,162.635971 248.556412,152.302933 240.392685,143.121475 
	C231.677643,133.319946 227.059586,122.801338 229.170776,109.674889 
	C229.300995,108.865257 229.162582,108.012001 229.145294,107.179123 
	C229.059647,103.055710 226.889587,101.454094 222.956467,102.241295 
	C214.996704,103.834412 209.377731,108.084351 206.825729,116.120445 
	C206.345886,117.631432 204.672440,119.613045 203.280563,119.859985 
	C171.781921,125.448059 152.685806,148.054626 152.676163,180.067734 
	C152.669388,202.559296 152.642349,225.050964 152.712906,247.542297 
	C152.722122,250.474487 152.231766,252.277679 149.000885,253.549484 
	C140.371719,256.946289 136.172501,263.741486 135.998154,272.983582 
	C135.919586,277.148163 135.984161,281.315430 135.983795,286.473145 
z"/>
<path fill="#F77414" opacity="1.000000" stroke="none" 
	d="
M135.983795,285.977295 
	C135.984161,281.315430 135.919586,277.148163 135.998154,272.983582 
	C136.172501,263.741486 140.371719,256.946289 149.000885,253.549484 
	C152.231766,252.277679 152.722122,250.474487 152.712906,247.542297 
	C152.642349,225.050964 152.669388,202.559296 152.676163,180.067734 
	C152.685806,148.054626 171.781921,125.448059 203.280563,119.859985 
	C204.672440,119.613045 206.345886,117.631432 206.825729,116.120445 
	C209.377731,108.084351 214.996704,103.834412 222.956467,102.241295 
	C226.889587,101.454094 229.059647,103.055710 229.145294,107.179123 
	C229.162582,108.012001 229.300995,108.865257 229.170776,109.674889 
	C227.059586,122.801338 231.677643,133.319946 240.392685,143.121475 
	C248.556412,152.302933 255.427139,162.635971 262.839508,172.482834 
	C267.118652,178.167435 267.093506,178.291122 262.296631,183.237045 
	C258.237701,187.422165 254.046600,191.487274 250.143478,195.812576 
	C247.466431,198.779190 244.856369,198.838425 241.853302,196.603638 
	C241.586288,196.404907 241.269272,196.264343 241.029633,196.039139 
	C233.705399,189.155975 224.860764,188.260101 215.431656,189.660217 
	C212.011078,203.608337 218.318298,219.085556 230.970917,226.469376 
	C234.220581,228.365814 235.485275,230.505325 235.222809,234.042831 
	C235.050659,236.363037 235.375214,238.723907 235.155670,241.036041 
	C234.540634,247.513580 234.997513,252.274353 243.125824,254.599609 
	C249.948929,256.551483 253.587433,263.306244 253.966354,270.654785 
	C254.386322,278.799377 254.125488,286.978790 254.172791,295.143005 
	C254.198868,299.642914 251.245071,300.047424 247.745453,300.038147 
	C229.581604,299.990021 211.417572,300.016052 193.253601,300.016144 
	C176.922684,300.016205 160.591782,300.018311 144.260864,300.015259 
	C136.250076,300.013763 135.991913,299.758881 135.984085,291.972229 
	C135.982239,290.139191 135.983795,288.306183 135.983795,285.977295 
M203.065796,164.739319 
	C203.521637,176.709442 208.527496,181.586716 220.469116,181.673843 
	C223.800018,181.698135 227.146408,181.491669 230.456436,181.756683 
	C232.362259,181.909256 234.350784,182.522507 236.052597,183.407944 
	C239.267822,185.080765 242.494431,188.813812 245.359283,188.493851 
	C248.238098,188.172333 250.508102,183.735428 253.361115,181.506790 
	C256.879303,178.758530 256.378113,176.513474 253.846664,173.261078 
	C244.032990,160.652557 234.340546,147.941284 224.975952,134.998398 
	C223.000488,132.268097 222.045807,128.467468 221.613297,125.034943 
	C221.049469,120.560127 221.475357,115.960609 221.475357,110.753860 
	C215.955368,113.429268 213.900696,117.131195 213.916260,121.980774 
	C213.928452,125.783379 212.189331,127.374504 208.471771,127.437256 
	C185.246826,127.829254 159.882980,146.692642 160.271393,180.671417 
	C160.518860,202.320511 160.317703,223.974747 160.317719,245.626678 
	C160.317719,247.566528 160.317719,249.506378 160.317719,251.628891 
	C183.062668,251.628891 205.106476,251.628891 227.308044,251.628891 
	C227.858444,242.341980 230.268967,232.895676 219.598923,227.523422 
	C218.482956,226.961563 217.726151,225.656387 216.848450,224.655975 
	C208.638947,215.298767 206.320816,204.109619 206.967255,192.096848 
	C207.152527,188.653976 206.279602,186.307556 203.379639,184.096039 
	C197.375519,179.517349 195.157333,172.916534 195.627121,165.557480 
	C195.727966,163.977707 197.241028,161.629181 198.566177,161.249481 
	C199.691269,160.927124 201.483643,162.933624 203.065796,164.739319 
M182.500351,292.054016 
	C203.602921,292.054016 224.705505,292.054016 246.006271,292.054016 
	C246.006271,284.117767 246.455383,276.650116 245.853668,269.268158 
	C245.428757,264.055298 240.428329,260.010773 234.970917,259.980286 
	C208.487854,259.832550 182.003082,259.841370 155.519913,259.981445 
	C150.041092,260.010437 144.889999,263.898376 144.431870,269.052124 
	C143.763641,276.569489 144.260208,284.190369 144.260208,292.053925 
	C156.900589,292.053925 169.200439,292.053925 182.500351,292.054016 
z"/>
<path fill="#131211" opacity="1.000000" stroke="none" 
	d="
M203.023285,164.324493 
	C201.483643,162.933624 199.691269,160.927124 198.566177,161.249481 
	C197.241028,161.629181 195.727966,163.977707 195.627121,165.557480 
	C195.157333,172.916534 197.375519,179.517349 203.379639,184.096039 
	C206.279602,186.307556 207.152527,188.653976 206.967255,192.096848 
	C206.320816,204.109619 208.638947,215.298767 216.848450,224.655975 
	C217.726151,225.656387 218.482956,226.961563 219.598923,227.523422 
	C230.268967,232.895676 227.858444,242.341980 227.308044,251.628891 
	C205.106476,251.628891 183.062668,251.628891 160.317719,251.628891 
	C160.317719,249.506378 160.317719,247.566528 160.317719,245.626678 
	C160.317703,223.974747 160.518860,202.320511 160.271393,180.671417 
	C159.882980,146.692642 185.246826,127.829254 208.471771,127.437256 
	C212.189331,127.374504 213.928452,125.783379 213.916260,121.980774 
	C213.900696,117.131195 215.955368,113.429268 221.475357,110.753860 
	C221.475357,115.960609 221.049469,120.560127 221.613297,125.034943 
	C222.045807,128.467468 223.000488,132.268097 224.975952,134.998398 
	C234.340546,147.941284 244.032990,160.652557 253.846664,173.261078 
	C256.378113,176.513474 256.879303,178.758530 253.361115,181.506790 
	C250.508102,183.735428 248.238098,188.172333 245.359283,188.493851 
	C242.494431,188.813812 239.267822,185.080765 236.052597,183.407944 
	C234.350784,182.522507 232.362259,181.909256 230.456436,181.756683 
	C227.146408,181.491669 223.800018,181.698135 220.469116,181.673843 
	C208.527496,181.586716 203.521637,176.709442 203.023285,164.324493 
z"/>
<path fill="#111111" opacity="1.000000" stroke="none" 
	d="
M182.000305,292.053955 
	C169.200439,292.053925 156.900589,292.053925 144.260208,292.053925 
	C144.260208,284.190369 143.763641,276.569489 144.431870,269.052124 
	C144.889999,263.898376 150.041092,260.010437 155.519913,259.981445 
	C182.003082,259.841370 208.487854,259.832550 234.970917,259.980286 
	C240.428329,260.010773 245.428757,264.055298 245.853668,269.268158 
	C246.455383,276.650116 246.006271,284.117767 246.006271,292.054016 
	C224.705505,292.054016 203.602921,292.054016 182.000305,292.053955 
z"/>
</svg>